<svg width="1400" height="900" viewBox="0 0 1400 900" fill="none" xmlns="http://www.w3.org/2000/svg">
  <defs>
    <linearGradient id="bg" x1="0" y1="0" x2="1400" y2="900" gradientUnits="userSpaceOnUse">
      <stop stop-color="#F5F5F0"/>
      <stop offset="1" stop-color="#F5F5F0"/>
    </linearGradient>
    <radialGradient id="r1" cx="0" cy="0" r="1" gradientUnits="userSpaceOnUse" gradientTransform="translate(520 280) rotate(25) scale(760 440)">
      <stop stop-color="#4A63FF" stop-opacity="0.28"/>
      <stop offset="1" stop-color="#4A63FF" stop-opacity="0"/>
    </radialGradient>
    <radialGradient id="r2" cx="0" cy="0" r="1" gradientUnits="userSpaceOnUse" gradientTransform="translate(980 650) rotate(-10) scale(760 440)">
      <stop stop-color="#1E1E2F" stop-opacity="0.12"/>
      <stop offset="1" stop-color="#1E1E2F" stop-opacity="0"/>
    </radialGradient>
  </defs>
  <rect width="1400" height="900" fill="url(#bg)"/>
  <rect width="1400" height="900" fill="url(#r1)"/>
  <rect width="1400" height="900" fill="url(#r2)"/>

  <g opacity="0.92">
    <rect x="170" y="170" width="1060" height="520" rx="54" fill="#FFFFFF" fill-opacity="0.55" stroke="#1E1E2F" stroke-opacity="0.12"/>
    <rect x="230" y="232" width="420" height="48" rx="24" fill="#1E1E2F" fill-opacity="0.07"/>
    <rect x="230" y="308" width="920" height="12" rx="6" fill="#1E1E2F" fill-opacity="0.08"/>
    <rect x="230" y="352" width="520" height="170" rx="34" fill="#4A63FF" fill-opacity="0.12"/>
    <rect x="770" y="352" width="380" height="102" rx="34" fill="#F2B705" fill-opacity="0.14"/>
    <rect x="770" y="470" width="380" height="52" rx="26" fill="#1E1E2F" fill-opacity="0.08"/>
    <rect x="230" y="544" width="920" height="110" rx="42" fill="#1E1E2F" fill-opacity="0.06"/>
    <path d="M280 628c64-42 122-66 182-72 82-10 146 26 194 64 42 34 98 60 174 60 102 0 194-52 264-108" stroke="#4A63FF" stroke-opacity="0.28" stroke-width="8" stroke-linecap="round"/>
  </g>
</svg>

