<svg width="1400" height="900" viewBox="0 0 1400 900" fill="none" xmlns="http://www.w3.org/2000/svg">
  <defs>
    <linearGradient id="bg" x1="0" y1="0" x2="1400" y2="900" gradientUnits="userSpaceOnUse">
      <stop stop-color="#F5F5F0"/>
      <stop offset="1" stop-color="#F5F5F0"/>
    </linearGradient>
    <radialGradient id="r1" cx="0" cy="0" r="1" gradientUnits="userSpaceOnUse" gradientTransform="translate(520 300) rotate(30) scale(740 440)">
      <stop stop-color="#4A63FF" stop-opacity="0.30"/>
      <stop offset="1" stop-color="#4A63FF" stop-opacity="0"/>
    </radialGradient>
    <radialGradient id="r2" cx="0" cy="0" r="1" gradientUnits="userSpaceOnUse" gradientTransform="translate(980 620) rotate(-10) scale(780 460)">
      <stop stop-color="#F2B705" stop-opacity="0.20"/>
      <stop offset="1" stop-color="#F2B705" stop-opacity="0"/>
    </radialGradient>
  </defs>
  <rect width="1400" height="900" fill="url(#bg)"/>
  <rect width="1400" height="900" fill="url(#r1)"/>
  <rect width="1400" height="900" fill="url(#r2)"/>

  <g opacity="0.92">
    <rect x="160" y="160" width="1080" height="520" rx="54" fill="#FFFFFF" fill-opacity="0.55" stroke="#1E1E2F" stroke-opacity="0.12"/>
    <rect x="220" y="220" width="420" height="48" rx="24" fill="#1E1E2F" fill-opacity="0.07"/>
    <rect x="220" y="296" width="860" height="14" rx="7" fill="#1E1E2F" fill-opacity="0.08"/>
    <rect x="220" y="332" width="620" height="14" rx="7" fill="#1E1E2F" fill-opacity="0.06"/>
    <rect x="220" y="392" width="420" height="240" rx="34" fill="#4A63FF" fill-opacity="0.12"/>
    <rect x="660" y="392" width="480" height="92" rx="34" fill="#F2B705" fill-opacity="0.14"/>
    <rect x="660" y="500" width="480" height="132" rx="42" fill="#1E1E2F" fill-opacity="0.06"/>
    <path d="M1080 260c0 46-38 84-84 84s-84-38-84-84 38-84 84-84 84 38 84 84Z" fill="#4A63FF" fill-opacity="0.16"/>
    <path d="M1012 226h-32c-26 0-48 22-48 48v22c0 26 22 48 48 48h32c26 0 48-22 48-48v-22c0-26-22-48-48-48Z" fill="#1E1E2F" fill-opacity="0.10"/>
  </g>
</svg>

