<svg width="1600" height="900" viewBox="0 0 1600 900" fill="none" xmlns="http://www.w3.org/2000/svg">
  <defs>
    <linearGradient id="base" x1="0" y1="0" x2="1600" y2="900" gradientUnits="userSpaceOnUse">
      <stop stop-color="#F5F5F0"/>
      <stop offset="1" stop-color="#F5F5F0"/>
    </linearGradient>
    <radialGradient id="a" cx="0" cy="0" r="1" gradientUnits="userSpaceOnUse" gradientTransform="translate(520 280) rotate(25) scale(820 460)">
      <stop stop-color="#4A63FF" stop-opacity="0.30"/>
      <stop offset="1" stop-color="#4A63FF" stop-opacity="0"/>
    </radialGradient>
    <radialGradient id="b" cx="0" cy="0" r="1" gradientUnits="userSpaceOnUse" gradientTransform="translate(1120 560) rotate(-15) scale(860 520)">
      <stop stop-color="#F2B705" stop-opacity="0.20"/>
      <stop offset="1" stop-color="#F2B705" stop-opacity="0"/>
    </radialGradient>
    <filter id="grain" x="-20%" y="-20%" width="140%" height="140%">
      <feTurbulence type="fractalNoise" baseFrequency="0.7" numOctaves="2" stitchTiles="stitch" />
      <feColorMatrix type="matrix" values="0 0 0 0 0.12  0 0 0 0 0.12  0 0 0 0 0.18  0 0 0 0.12 0"/>
    </filter>
  </defs>
  <rect width="1600" height="900" fill="url(#base)"/>
  <rect width="1600" height="900" fill="url(#a)"/>
  <rect width="1600" height="900" fill="url(#b)"/>
  <g opacity="0.22" filter="url(#grain)">
    <rect width="1600" height="900" fill="#1E1E2F"/>
  </g>
  <g opacity="0.16">
    <path d="M140 720 C 360 520, 520 560, 720 420 C 960 260, 1140 320, 1460 220" stroke="#1E1E2F" stroke-width="2"/>
    <path d="M120 760 C 360 560, 520 620, 760 460 C 980 320, 1180 360, 1460 280" stroke="#4A63FF" stroke-width="2"/>
    <path d="M180 780 C 420 620, 580 660, 820 520 C 1040 400, 1220 420, 1460 340" stroke="#F2B705" stroke-width="2"/>
  </g>
</svg>

