<svg width="1920" height="1080" viewBox="0 0 1920 1080" fill="none" xmlns="http://www.w3.org/2000/svg">
  <defs>
    <radialGradient id="g1" cx="0" cy="0" r="1" gradientUnits="userSpaceOnUse" gradientTransform="translate(540 220) rotate(35) scale(980 520)">
      <stop stop-color="#4A63FF" stop-opacity="0.45"/>
      <stop offset="1" stop-color="#4A63FF" stop-opacity="0"/>
    </radialGradient>
    <radialGradient id="g2" cx="0" cy="0" r="1" gradientUnits="userSpaceOnUse" gradientTransform="translate(1380 640) rotate(-10) scale(900 520)">
      <stop stop-color="#F2B705" stop-opacity="0.28"/>
      <stop offset="1" stop-color="#F2B705" stop-opacity="0"/>
    </radialGradient>
    <linearGradient id="g3" x1="0" y1="0" x2="1920" y2="1080" gradientUnits="userSpaceOnUse">
      <stop stop-color="#F5F5F0"/>
      <stop offset="1" stop-color="#F5F5F0"/>
    </linearGradient>
    <filter id="noise" x="-20%" y="-20%" width="140%" height="140%">
      <feTurbulence type="fractalNoise" baseFrequency="0.6" numOctaves="2" stitchTiles="stitch" />
      <feColorMatrix type="matrix" values="0 0 0 0 0.12  0 0 0 0 0.12  0 0 0 0 0.18  0 0 0 0.16 0"/>
    </filter>
  </defs>

  <rect width="1920" height="1080" fill="url(#g3)"/>
  <rect width="1920" height="1080" fill="url(#g1)"/>
  <rect width="1920" height="1080" fill="url(#g2)"/>

  <g opacity="0.22" filter="url(#noise)">
    <rect width="1920" height="1080" fill="#1E1E2F"/>
  </g>

  <path d="M-60 920 C 460 720, 740 1140, 1240 900 C 1580 740, 1760 760, 2020 880" stroke="#1E1E2F" stroke-opacity="0.14" stroke-width="2"/>
  <path d="M-40 860 C 420 700, 760 980, 1220 820 C 1540 700, 1760 720, 2020 820" stroke="#4A63FF" stroke-opacity="0.16" stroke-width="2"/>
  <path d="M-20 800 C 420 640, 760 860, 1200 740 C 1560 600, 1740 620, 2020 760" stroke="#F2B705" stroke-opacity="0.14" stroke-width="2"/>
</svg>

