<svg width="1200" height="750" viewBox="0 0 1200 750" fill="none" xmlns="http://www.w3.org/2000/svg">
  <defs>
    <linearGradient id="bg" x1="0" y1="0" x2="1200" y2="750" gradientUnits="userSpaceOnUse">
      <stop stop-color="#F5F5F0"/>
      <stop offset="1" stop-color="#F5F5F0"/>
    </linearGradient>
    <radialGradient id="r1" cx="0" cy="0" r="1" gradientUnits="userSpaceOnUse" gradientTransform="translate(380 240) rotate(25) scale(540 340)">
      <stop stop-color="#4A63FF" stop-opacity="0.30"/>
      <stop offset="1" stop-color="#4A63FF" stop-opacity="0"/>
    </radialGradient>
    <radialGradient id="r2" cx="0" cy="0" r="1" gradientUnits="userSpaceOnUse" gradientTransform="translate(860 520) rotate(-10) scale(520 340)">
      <stop stop-color="#1E1E2F" stop-opacity="0.12"/>
      <stop offset="1" stop-color="#1E1E2F" stop-opacity="0"/>
    </radialGradient>
  </defs>
  <rect width="1200" height="750" fill="url(#bg)"/>
  <rect width="1200" height="750" fill="url(#r1)"/>
  <rect width="1200" height="750" fill="url(#r2)"/>

  <g opacity="0.92">
    <rect x="150" y="160" width="900" height="440" rx="44" fill="#FFFFFF" fill-opacity="0.55" stroke="#1E1E2F" stroke-opacity="0.12"/>
    <rect x="196" y="208" width="300" height="44" rx="22" fill="#1E1E2F" fill-opacity="0.07"/>
    <rect x="196" y="278" width="808" height="10" rx="5" fill="#1E1E2F" fill-opacity="0.08"/>
    <rect x="196" y="312" width="420" height="140" rx="28" fill="#4A63FF" fill-opacity="0.12"/>
    <rect x="634" y="312" width="370" height="86" rx="28" fill="#F2B705" fill-opacity="0.14"/>
    <rect x="634" y="414" width="370" height="38" rx="19" fill="#1E1E2F" fill-opacity="0.08"/>
    <rect x="196" y="470" width="808" height="90" rx="32" fill="#1E1E2F" fill-opacity="0.06"/>
    <path d="M230 538c40-26 76-42 112-48 52-8 94 14 124 40 26 22 62 40 108 40 62 0 120-32 168-68" stroke="#4A63FF" stroke-opacity="0.28" stroke-width="6" stroke-linecap="round"/>
  </g>
</svg>

