<svg width="1200" height="750" viewBox="0 0 1200 750" fill="none" xmlns="http://www.w3.org/2000/svg">
  <defs>
    <linearGradient id="bg" x1="0" y1="0" x2="1200" y2="750" gradientUnits="userSpaceOnUse">
      <stop stop-color="#F5F5F0"/>
      <stop offset="1" stop-color="#F5F5F0"/>
    </linearGradient>
    <radialGradient id="r1" cx="0" cy="0" r="1" gradientUnits="userSpaceOnUse" gradientTransform="translate(380 240) rotate(30) scale(560 360)">
      <stop stop-color="#F2B705" stop-opacity="0.18"/>
      <stop offset="1" stop-color="#F2B705" stop-opacity="0"/>
    </radialGradient>
    <radialGradient id="r2" cx="0" cy="0" r="1" gradientUnits="userSpaceOnUse" gradientTransform="translate(860 500) rotate(-10) scale(560 360)">
      <stop stop-color="#4A63FF" stop-opacity="0.24"/>
      <stop offset="1" stop-color="#4A63FF" stop-opacity="0"/>
    </radialGradient>
  </defs>
  <rect width="1200" height="750" fill="url(#bg)"/>
  <rect width="1200" height="750" fill="url(#r1)"/>
  <rect width="1200" height="750" fill="url(#r2)"/>

  <g opacity="0.92">
    <rect x="170" y="160" width="860" height="440" rx="44" fill="#FFFFFF" fill-opacity="0.55" stroke="#1E1E2F" stroke-opacity="0.12"/>
    <rect x="220" y="212" width="520" height="44" rx="22" fill="#1E1E2F" fill-opacity="0.07"/>
    <g>
      <rect x="220" y="292" width="760" height="52" rx="26" fill="#1E1E2F" fill-opacity="0.06"/>
      <rect x="220" y="360" width="760" height="52" rx="26" fill="#1E1E2F" fill-opacity="0.06"/>
      <rect x="220" y="428" width="760" height="52" rx="26" fill="#1E1E2F" fill-opacity="0.06"/>
      <rect x="220" y="496" width="760" height="52" rx="26" fill="#1E1E2F" fill-opacity="0.06"/>
    </g>
    <g opacity="0.9">
      <circle cx="260" cy="318" r="12" fill="#4A63FF" fill-opacity="0.50"/>
      <circle cx="260" cy="386" r="12" fill="#F2B705" fill-opacity="0.55"/>
      <circle cx="260" cy="454" r="12" fill="#4A63FF" fill-opacity="0.50"/>
      <circle cx="260" cy="522" r="12" fill="#1E1E2F" fill-opacity="0.24"/>
      <path d="M292 318h290" stroke="#1E1E2F" stroke-opacity="0.18" stroke-width="8" stroke-linecap="round"/>
      <path d="M292 386h360" stroke="#1E1E2F" stroke-opacity="0.14" stroke-width="8" stroke-linecap="round"/>
      <path d="M292 454h260" stroke="#1E1E2F" stroke-opacity="0.16" stroke-width="8" stroke-linecap="round"/>
      <path d="M292 522h330" stroke="#1E1E2F" stroke-opacity="0.12" stroke-width="8" stroke-linecap="round"/>
    </g>
  </g>
</svg>

