<svg width="1200" height="750" viewBox="0 0 1200 750" fill="none" xmlns="http://www.w3.org/2000/svg">
  <defs>
    <linearGradient id="bg" x1="0" y1="0" x2="1200" y2="750" gradientUnits="userSpaceOnUse">
      <stop stop-color="#F5F5F0"/>
      <stop offset="1" stop-color="#F5F5F0"/>
    </linearGradient>
    <radialGradient id="r1" cx="0" cy="0" r="1" gradientUnits="userSpaceOnUse" gradientTransform="translate(420 260) rotate(30) scale(560 360)">
      <stop stop-color="#1E1E2F" stop-opacity="0.12"/>
      <stop offset="1" stop-color="#1E1E2F" stop-opacity="0"/>
    </radialGradient>
    <radialGradient id="r2" cx="0" cy="0" r="1" gradientUnits="userSpaceOnUse" gradientTransform="translate(820 480) rotate(-10) scale(560 360)">
      <stop stop-color="#4A63FF" stop-opacity="0.28"/>
      <stop offset="1" stop-color="#4A63FF" stop-opacity="0"/>
    </radialGradient>
  </defs>
  <rect width="1200" height="750" fill="url(#bg)"/>
  <rect width="1200" height="750" fill="url(#r1)"/>
  <rect width="1200" height="750" fill="url(#r2)"/>

  <g opacity="0.92">
    <rect x="160" y="170" width="880" height="420" rx="44" fill="#FFFFFF" fill-opacity="0.55" stroke="#1E1E2F" stroke-opacity="0.12"/>
    <rect x="210" y="220" width="460" height="44" rx="22" fill="#1E1E2F" fill-opacity="0.07"/>
    <rect x="210" y="290" width="760" height="16" rx="8" fill="#1E1E2F" fill-opacity="0.08"/>
    <rect x="210" y="322" width="660" height="16" rx="8" fill="#1E1E2F" fill-opacity="0.06"/>
    <g opacity="0.9">
      <circle cx="330" cy="450" r="44" fill="#4A63FF" fill-opacity="0.14"/>
      <circle cx="600" cy="410" r="34" fill="#F2B705" fill-opacity="0.16"/>
      <circle cx="850" cy="470" r="40" fill="#1E1E2F" fill-opacity="0.10"/>
      <path d="M374 448h192" stroke="#4A63FF" stroke-opacity="0.28" stroke-width="6" stroke-linecap="round"/>
      <path d="M634 422h176" stroke="#F2B705" stroke-opacity="0.26" stroke-width="6" stroke-linecap="round"/>
      <path d="M330 494c60 64 172 92 272 92 114 0 212-40 248-80" stroke="#1E1E2F" stroke-opacity="0.16" stroke-width="6" stroke-linecap="round"/>
    </g>
  </g>
</svg>

